# xmcd
#
# Track frame offsets:
#	150
#	13656
#	26118
#	37346
#	50265
#	63281
#	77071
#	88041
#	98697
#	109647
#	122964
#	136404
#	150035
#	163483
#
# Disc length: 2360 seconds
#
# Revision: 1
# Processed by: cddbd v1.5.2PL0 Copyright (c) Steve Scherf et al.
# Submitted via: audiograbber 1.83.01
#
DISCID=b209360e
DTITLE=Various Artist - Blue Bonnet Swing 1947-1950
DYEAR=1900
DGENRE=Country
TTITLE0=Sheb Wooley - Peeping Through the Keyhole (Watching Jole Blon)
TTITLE1=Louisiana Ramblers - My Troubled Mind
TTITLE2=Tiny Colbert - Outskirts of Town
TTITLE3=Buster, Stoney and The Buckaroos - Daisy Mae
TTITLE4=Chester Odom and His Western Rhythm Boys - That's All
TTITLE5=Eddie Miller and His Oklahomans - Cab Driver's Blues
TTITLE6=Jesse James and His Band - Piano Pete's Boogie
TTITLE7=Bill Grubbs and The Oklahoma Ramblers - My Gal Alice
TTITLE8=Tiny Colbert and His Entertainers - Bumble Bee Baby
TTITLE9=Eddie Miller - I Love You Honey
TTITLE10=Chuck Harding and His Colorado Cowhands - Leap Year Blues
TTITLE11=Jesse James and The Boys - Fiddle Swing
TTITLE12=Lloyd Weaver and His Pals of the Saddle - Virginia (West Virginia)
TTITLE13=Tiny Colbert - New Joe Turner Blues
EXTD=
EXTT0=
EXTT1=
EXTT2=
EXTT3=
EXTT4=
EXTT5=
EXTT6=
EXTT7=
EXTT8=
EXTT9=
EXTT10=
EXTT11=
EXTT12=
EXTT13=
PLAYORDER=
